<?xml version="1.0" encoding="utf-8"?><svg viewBox="0 0 32 32" xmlns="http://www.w3.org/2000/svg" xmlns:xlink="http://www.w3.org/1999/xlink"><style>:root>svg{display:none}:root>svg:target{display:block}</style><svg viewBox="0 0 32 32" id="Group(1)" xmlns="http://www.w3.org/2000/svg"><path d="M18.877 20.206L29.867 32 32 30.388 21.01 18.594l-2.133 1.612z"/><path d="M12.68 2.798c-5.279 0-9.572 4.074-9.572 9.081 0 5.008 4.293 9.082 9.572 9.082 5.279 0 9.572-4.074 9.572-9.082 0-5.007-4.293-9.08-9.572-9.08zm0 20.963C5.687 23.761 0 18.431 0 11.881 0 5.33 5.689 0 12.68 0 19.672 0 25.36 5.33 25.36 11.88c0 6.552-5.689 11.881-12.681 11.881z"/></svg></svg>